<mxfile host="app.diagrams.net" modified="2023-05-26T04:48:33.530Z" agent="Mozilla/5.0 (Windows NT 10.0; Win64; x64; rv:109.0) Gecko/20100101 Firefox/113.0" version="21.3.4" etag="VIuLPt2yRX1-tTeAALdg" type="github">
  <diagram name="페이지-1" id="tikbjfESuD0P6kboDcH1">
    <mxGraphModel>
      <root>
        <mxCell id="0" />
        <mxCell id="1" parent="0" />
      </root>
    </mxGraphModel>
  </diagram>
</mxfile>
